<?xml version="1.0" encoding="UTF-8" standalone="no"?>
<!-- Created with Inkscape (http://www.inkscape.org/) -->

<svg
   width="1080"
   height="1080"
   viewBox="0 0 1080 1080"
   version="1.1"
   id="svg1"
   inkscape:version="1.3.2 (1:1.3.2+202311252150+091e20ef0f)"
   sodipodi:docname="Cyber.svg"
   inkscape:export-filename="Cyber.png"
   inkscape:export-xdpi="220.81944"
   inkscape:export-ydpi="220.81944"
   xmlns:inkscape="http://www.inkscape.org/namespaces/inkscape"
   xmlns:sodipodi="http://sodipodi.sourceforge.net/DTD/sodipodi-0.dtd"
   xmlns="http://www.w3.org/2000/svg"
   xmlns:svg="http://www.w3.org/2000/svg">
  <sodipodi:namedview
     id="namedview1"
     pagecolor="#505050"
     bordercolor="#ffffff"
     borderopacity="1"
     inkscape:showpageshadow="0"
     inkscape:pageopacity="0"
     inkscape:pagecheckerboard="1"
     inkscape:deskcolor="#505050"
     inkscape:document-units="px"
     inkscape:zoom="0.74814815"
     inkscape:cx="541.33663"
     inkscape:cy="541.33663"
     inkscape:window-width="1920"
     inkscape:window-height="1011"
     inkscape:window-x="0"
     inkscape:window-y="0"
     inkscape:window-maximized="1"
     inkscape:current-layer="layer6" />
  <defs
     id="defs1" />
  <g
     inkscape:groupmode="layer"
     id="layer6"
     inkscape:label="ContenedorCircular">
    <path
       id="path5"
       d="m 537.68,248.72 -6.48,0.08 -12.88,0.8 -12.8,1.36 -12.8,1.92 -12.64,2.48 -12.48,2.96 -12.4,3.6 -12.24,4.08 -12.08,4.64 -11.76,5.2 -11.6,5.68 -11.36,6.16 -11.04,6.64 -10.72,7.2 -10.4,7.6 -10,8.16 -4.88,4.24 -4.32,3.84 -8.4,8 -8.08,8.32 -7.68,8.72 -7.44,8.96 -6.96,9.2 -6.64,9.6 -6.24,9.76 -5.92,10 -5.44,10.24 -5.04,10.4 -4.72,10.64 -4.16,10.88 -3.76,10.96 -3.36,11.12 -2.88,11.2 -1.2,5.68 -1.12,5.44 -1.92,10.8 -1.52,10.88 -1.04,10.96 -0.64,10.96 -0.24,11.04 0.16,10.96 0.56,10.96 1.04,10.96 1.36,10.88 1.84,10.88 2.24,10.8 2.56,10.64 3.04,10.56 3.44,10.48 3.84,10.32 2.08,5.04 2.32,5.68 5.2,11.12 5.6,10.88 6.08,10.64 6.56,10.32 6.96,10.08 7.36,9.76 7.76,9.52 8.16,9.12 8.48,8.8 8.88,8.4 9.28,8 9.52,7.68 9.92,7.28 10.16,6.8 10.48,6.4 5.28,2.96 5.44,2.96 10.88,5.44 11.2,5.04 11.36,4.48 11.6,4.08 11.68,3.52 11.92,3.12 11.92,2.56 12.08,2.08 12.16,1.52 12.24,1.04 12.16,0.56 12.32,0.08 12.16,-0.48 12.24,-1.04 12.16,-1.52 6.08,-1.04 5.52,-0.96 10.96,-2.24 10.88,-2.72 10.72,-3.12 10.64,-3.52 10.48,-4 10.32,-4.32 10.24,-4.72 9.92,-5.12 9.76,-5.52 9.6,-5.84 9.28,-6.24 9.12,-6.56 8.8,-6.96 8.48,-7.28 8.24,-7.6 4,-3.92 3.92,-3.92 7.52,-8.08 7.28,-8.32 6.88,-8.64 6.56,-8.96 6.24,-9.12 5.92,-9.36 5.52,-9.6 5.12,-9.76 4.8,-9.92 4.4,-10.16 4,-10.32 3.68,-10.4 3.2,-10.64 2.8,-10.64 2.4,-10.8 0.96,-5.44 0.96,-5.28 1.52,-10.48 1.2,-10.48 0.72,-10.56 0.4,-10.56 v -10.64 l -0.4,-10.56 -0.72,-10.56 -1.2,-10.56 -1.52,-10.48 -1.84,-10.4 -2.32,-10.32 -2.64,-10.24 -3.04,-10.16 -3.36,-10 -3.84,-9.92 -2,-4.88 -2.32,-5.28 -4.88,-10.48 -5.36,-10.32 -5.76,-10 -6.16,-9.84 -6.48,-9.52 -6.88,-9.28 -7.28,-9.04 -7.6,-8.72 -7.92,-8.4 -8.32,-8.08 -8.56,-7.76 -8.88,-7.44 -9.2,-7.04 -9.44,-6.64 -9.68,-6.32 -4.96,-2.96 -8.72,-5.04 -17.84,-8.96 -18.48,-7.76 -18.96,-6.48 -19.36,-5.2 -19.68,-3.84 -19.84,-2.48 -20,-1.12 z"
       style="fill:#4abdfc;fill-opacity:1;fill-rule:nonzero;stroke:none"
       inkscape:label="Sombra"
       transform="matrix(1.7254042,0,0,1.7254042,-394.53784,-389.42105)" />
    <path
       id="path7"
       d="m 257.36,454.4 -2.48,9.36 -3.84,19.04 -2.64,19.28 -1.36,19.36 -0.16,9.76 0.08,7.76 0.8,15.52 1.52,15.2 2.32,15.04 3.04,14.72 3.68,14.56 4.4,14.16 5.12,13.92 5.76,13.52 6.32,13.2 7.04,12.88 7.52,12.48 8.16,12.08 8.72,11.6 9.28,11.2 9.76,10.8 10.24,10.24 10.72,9.76 11.2,9.2 11.68,8.72 12,8.16 12.48,7.6 12.88,6.96 13.2,6.4 13.6,5.68 13.84,5.12 14.24,4.4 14.48,3.76 14.8,3.04 14.96,2.24 15.28,1.6 15.44,0.72 7.84,0.08 6.48,-0.08 12.96,-0.56 12.88,-1.12 12.8,-1.68 12.72,-2.24 12.48,-2.8 12.48,-3.28 12.24,-3.84 12.08,-4.32 11.84,-4.8 11.68,-5.36 11.52,-5.84 11.2,-6.32 10.96,-6.8 10.64,-7.28 10.4,-7.76 5.04,-4.08 -4.8,3.36 -9.92,6.56 -5.12,3.04 -5.44,3.28 -11.2,6.08 -11.44,5.68 -11.68,5.12 -11.84,4.64 -12.08,4.16 -12.24,3.68 -12.32,3.12 -12.48,2.64 -12.56,2.16 -12.64,1.6 -12.72,1.12 -12.72,0.56 -12.8,0.08 -12.72,-0.48 -12.72,-1.04 -6.32,-0.72 -6.24,-0.72 -12.32,-2 -12.24,-2.48 -12.16,-2.96 -12,-3.52 -11.84,-3.92 -11.68,-4.48 -11.44,-4.88 -11.28,-5.36 -11.04,-5.84 -10.88,-6.24 -10.56,-6.72 -10.24,-7.04 -10,-7.52 -9.68,-7.92 -9.36,-8.32 -4.48,-4.32 -4.96,-4.72 -9.52,-10 -9.04,-10.32 -8.48,-10.72 -8.08,-11.2 -7.52,-11.44 -7.04,-11.84 -6.48,-12.08 -5.92,-12.4 -5.44,-12.64 -4.8,-12.88 -4.32,-13.04 -3.68,-13.2 -3.12,-13.36 -2.48,-13.52 -1.92,-13.6 -0.64,-6.88 -0.56,-5.44 -0.64,-11.04 -0.24,-10.96 0.08,-11.04 0.56,-10.96 0.96,-10.96 1.36,-10.88 1.76,-10.88 z"
       style="fill:#a7cddd;fill-opacity:1;fill-rule:nonzero;stroke:none"
       inkscape:label="Fondo"
       transform="matrix(1.7254042,0,0,1.7254042,-394.53784,-389.42105)" />
    <path
       id="path9"
       d="m 540.4,238 -7.84,0.08 -15.44,0.8 -15.28,1.52 -15.04,2.32 -14.72,2.96 -14.48,3.76 -14.24,4.4 -13.84,5.12 -13.6,5.76 -13.2,6.32 -12.88,6.96 -12.48,7.6 -12.08,8.16 -11.6,8.72 -11.2,9.2 -10.72,9.76 -10.32,10.32 -9.76,10.72 -9.2,11.2 -8.72,11.6 -8.16,12.08 -7.6,12.48 -6.96,12.88 -6.32,13.2 -5.76,13.6 -5.12,13.84 -4.4,14.24 -3.76,14.48 -2.96,14.72 -2.32,15.04 -1.52,15.28 -0.8,15.44 -0.08,7.84 0.08,7.76 0.8,15.44 1.52,15.28 2.32,15.04 2.96,14.72 3.76,14.48 4.4,14.24 5.12,13.92 5.76,13.52 6.32,13.2 6.96,12.88 7.6,12.48 8.16,12.08 8.72,11.6 9.2,11.2 9.76,10.72 10.32,10.32 10.72,9.76 11.2,9.2 11.6,8.72 12.08,8.16 12.48,7.6 12.88,6.96 13.2,6.4 13.6,5.68 13.84,5.12 14.24,4.4 14.48,3.76 14.72,2.96 15.04,2.32 15.28,1.52 15.44,0.8 7.84,0.08 7.76,-0.08 15.44,-0.8 15.28,-1.52 15.04,-2.32 14.72,-2.96 14.48,-3.76 14.24,-4.4 13.92,-5.12 13.52,-5.68 13.2,-6.4 12.88,-6.96 12.48,-7.6 12.08,-8.16 11.6,-8.72 11.2,-9.2 10.72,-9.76 10.32,-10.32 9.76,-10.72 9.2,-11.2 8.72,-11.6 8.16,-12.08 7.6,-12.48 6.96,-12.88 6.4,-13.2 5.68,-13.52 5.12,-13.92 4.4,-14.24 3.76,-14.48 2.96,-14.72 2.32,-15.04 1.52,-15.28 0.8,-15.44 0.08,-7.76 -0.08,-7.84 -0.8,-15.44 -1.52,-15.28 -2.32,-15.04 -2.96,-14.72 -3.76,-14.48 -4.4,-14.24 -5.12,-13.84 -5.68,-13.6 -6.4,-13.2 -6.96,-12.88 -7.6,-12.48 -8.16,-12.08 -8.72,-11.6 -9.2,-11.2 -9.76,-10.72 -10.32,-10.32 -10.72,-9.76 -11.2,-9.2 -11.6,-8.72 -12.08,-8.16 -12.48,-7.6 -12.88,-6.96 -13.2,-6.32 -13.52,-5.76 -13.92,-5.12 -14.24,-4.4 -14.48,-3.76 -14.72,-2.96 -15.04,-2.32 -15.28,-1.52 -15.44,-0.8 z m -13.84,19.44 7.36,-0.32 h 14.48 l 14.4,0.72 14.16,1.44 13.92,2.08 13.76,2.8 13.52,3.44 13.28,4.08 12.96,4.72 12.72,5.28 12.32,5.92 12.08,6.48 11.68,7.04 11.36,7.6 10.88,8.08 10.56,8.64 10.08,9.04 9.68,9.6 9.2,10.08 8.72,10.4 8.24,10.96 7.68,11.28 7.2,11.68 6.56,12.08 6.08,12.4 5.44,12.8 4.8,13.04 4.24,13.36 3.52,13.68 2.88,14 2.24,14.16 1.44,14.48 0.48,7.28 0.32,7.28 v 14.56 l -0.72,14.32 -1.36,14.16 -2.16,14 -2.72,13.76 -3.44,13.52 -4.08,13.2 -4.72,13.04 -5.36,12.64 -5.92,12.4 -6.48,12 -7.04,11.76 -7.52,11.28 -8.16,10.96 -8.56,10.56 -9.12,10.08 -9.6,9.68 -10,9.2 -10.48,8.72 -10.88,8.24 -11.36,7.68 -11.68,7.12 -12.08,6.64 -12.4,6 -12.72,5.44 -13.12,4.88 -13.36,4.16 -13.68,3.6 -13.92,2.88 -14.24,2.16 -14.4,1.52 -7.36,0.4 -7.28,0.32 -14.56,0.08 -14.32,-0.72 -14.16,-1.44 -14,-2.08 -13.76,-2.8 -13.44,-3.44 -13.28,-4.08 -12.96,-4.72 -12.72,-5.28 -12.4,-5.92 -12,-6.48 -11.68,-7.04 -11.36,-7.6 -10.96,-8.08 -10.48,-8.64 -10.16,-9.12 -9.6,-9.52 -9.2,-10.08 -8.72,-10.48 -8.24,-10.88 -7.76,-11.28 -7.12,-11.68 -6.64,-12.08 -6,-12.4 -5.44,-12.8 -4.88,-13.04 -4.16,-13.44 -3.52,-13.68 -2.88,-13.92 -2.24,-14.16 -1.52,-14.48 -0.4,-7.28 L 258,548 v -14.48 l 0.64,-14.32 1.44,-14.24 2.08,-13.92 2.8,-13.76 3.44,-13.52 4.08,-13.28 4.72,-12.96 5.36,-12.64 5.84,-12.4 6.48,-12.08 7.04,-11.68 7.6,-11.28 8.08,-10.96 8.64,-10.56 9.12,-10.08 9.6,-9.68 10,-9.2 10.48,-8.72 10.88,-8.24 11.28,-7.68 11.76,-7.2 12,-6.56 12.48,-6.08 12.72,-5.44 13.12,-4.8 13.36,-4.24 13.68,-3.52 13.92,-2.88 14.24,-2.16 14.4,-1.52 z"
       style="fill:#022a3b;fill-opacity:1;fill-rule:nonzero;stroke:none"
       inkscape:label="Contorno"
       transform="matrix(1.7254042,0,0,1.7254042,-394.53784,-389.42105)" />
  </g>
  <g
     inkscape:groupmode="layer"
     id="layer4"
     inkscape:label="Nube">
    <path
       id="path11"
       d="m 550.88,349.04 -5.44,0.4 -9.84,1.76 -8.56,2.64 -7.28,3.44 -6.24,4.16 -5.28,4.8 -4.4,5.36 -3.6,5.68 -2.96,6 -2.32,6.24 -2.72,9.44 -3.52,18.32 -2.24,10.08 -0.64,0.64 -1.12,0.72 -1.92,0.16 -4,-0.32 -6.96,-0.96 -4.72,-1.04 -3.76,-0.96 -6.24,-1.2 -3.36,-0.24 -1.68,0.24 -1.2,0.64 -0.56,1.12 -0.08,0.8 v 2.4 l 1.36,7.6 1.84,4.56 1.76,3.12 1.12,1.52 1.84,2.32 3.84,3.68 5.36,3.76 2.08,1.12 -4.32,-1.52 -8.8,-1.92 -8.64,-0.64 -8.56,0.64 -8.32,1.68 -8,2.88 -7.68,3.84 -7.2,4.88 -6.72,5.68 -6.08,6.64 -5.52,7.36 -4.72,8.16 -3.92,8.8 -3.04,9.44 -2.08,9.92 -1.04,10.48 -0.16,5.36 -2.96,-1.12 -6.08,-1.76 -6.08,-1.2 -6,-0.56 -5.92,0.08 -5.84,0.72 -5.6,1.36 -5.52,2.08 -5.2,2.72 -5.04,3.36 -4.64,4.16 -4.4,4.88 -4,5.6 -3.68,6.4 -3.2,7.12 -2.72,7.92 -1.12,4.32 -0.8,3.28 -1.12,7.04 -0.64,7.28 v 7.44 l 0.64,7.2 1.36,6.8 2,6.16 2.88,5.2 1.84,2.08 0.72,0.8 1.6,0.88 2.16,0.56 h 0.88 l 64.16,0.48 236.96,1.52 122.56,0.56 20.08,-0.16 1.52,-0.16 2.96,-0.64 4.16,-1.6 4.96,-3.36 4.24,-4.56 3.6,-5.52 2.88,-6.32 2.08,-7.04 1.2,-7.44 0.4,-7.76 -0.56,-8 -1.52,-7.84 -2.56,-7.68 -3.52,-7.28 -4.64,-6.8 -5.76,-6 -5.12,-3.92 -3.84,-2.32 -2,-1.04 -0.48,0.32 -5.04,2.72 -6.32,2 -5.12,0.8 -5.6,-0.16 -5.92,-1.28 -3.04,-1.36 -5.44,-2.56 -5.76,-3.04 -3.2,-2.88 -4.64,-5.04 -4.4,-4.4 0.24,-2.48 -0.56,-4.88 -1.52,-4.56 -2.48,-4.4 -3.28,-4.16 -4.08,-3.92 -4.64,-3.6 -5.2,-3.36 -5.68,-2.96 -6.08,-2.72 -6.24,-2.32 -6.48,-2.08 -9.84,-2.32 -9.68,-1.44 -6.24,-0.48 -2.96,-0.08 3.36,-2.8 6.24,-6.56 5.36,-7.44 4.56,-8.16 3.68,-8.72 2.72,-8.96 1.6,-9.12 0.48,-9.04 -0.24,-4.32 -0.16,-2.96 -0.96,-5.92 -1.44,-5.92 -2,-5.84 -2.64,-5.84 -3.2,-5.68 -3.84,-5.52 -4.48,-5.28 -5.12,-4.96 -5.68,-4.72 -6.4,-4.24 -7.12,-3.92 -7.68,-3.36 -8.48,-2.96 -9.12,-2.32 -9.92,-1.68 -5.2,-0.56 z"
       style="fill:#167fbf;fill-opacity:1;fill-rule:nonzero;stroke:none"
       inkscape:label="SombraNubeYPato"
       transform="matrix(1.7254042,0,0,1.7254042,-394.53784,-389.42105)" />
    <path
       id="path13"
       d="m 556.72,340.8 -5.52,0.48 -9.84,1.68 -8.48,2.64 -7.36,3.52 -6.24,4.16 -5.28,4.8 -4.32,5.28 -3.6,5.76 -2.96,6 -2.4,6.16 -2.72,9.44 -3.52,18.4 -2.16,10.08 -0.64,0.64 -1.2,0.64 -1.84,0.24 -4,-0.4 -7.04,-0.96 -4.64,-1.04 -3.84,-0.88 -6.16,-1.2 -3.44,-0.24 -1.68,0.24 -1.12,0.64 -0.64,1.12 v 0.72 2.48 l 1.36,7.6 1.76,4.56 1.76,3.12 1.12,1.52 1.84,2.24 3.84,3.68 5.36,3.84 2.16,1.12 -4.4,-1.52 -8.72,-1.92 -8.72,-0.64 -8.56,0.56 -8.32,1.76 -8,2.8 -7.6,3.92 -7.28,4.8 -6.64,5.76 -6.16,6.64 -5.44,7.36 -4.72,8.16 -3.92,8.8 -3.04,9.36 -2.08,10 -1.12,10.4 -0.08,5.44 -3.04,-1.12 -6.08,-1.76 -6,-1.2 -6,-0.56 -5.92,0.08 -5.84,0.72 -5.68,1.36 -5.44,2 -5.28,2.72 -4.96,3.44 -4.72,4.16 -4.4,4.88 -4,5.6 -3.6,6.4 -3.2,7.12 -2.72,7.92 -1.2,4.32 -0.72,3.28 -1.2,6.96 -0.56,7.36 v 7.36 l 0.56,7.28 1.36,6.8 2.08,6.08 2.88,5.2 1.76,2.16 0.8,0.72 1.6,0.96 2.16,0.56 h 0.8 l 64.16,0.48 236.96,1.52 122.56,0.56 20.08,-0.16 1.52,-0.16 2.96,-0.64 4.16,-1.6 4.96,-3.36 4.32,-4.56 3.6,-5.52 2.88,-6.32 2,-7.04 1.28,-7.44 0.32,-7.84 -0.56,-7.92 -1.52,-7.92 -2.48,-7.68 -3.6,-7.28 -4.64,-6.72 -5.76,-6 -5.12,-3.92 -3.76,-2.32 -2,-1.04 -0.48,0.32 -5.04,2.64 -6.4,2.08 -5.04,0.72 -5.6,-0.08 -5.92,-1.36 -3.12,-1.28 -5.36,-2.56 -5.76,-3.12 -3.2,-2.8 -4.64,-5.04 -4.4,-4.4 0.16,-2.48 -0.56,-4.88 -1.52,-4.64 -2.48,-4.4 -3.28,-4.16 -4,-3.84 -4.72,-3.6 -5.2,-3.36 -5.68,-3.04 -6,-2.64 -6.32,-2.4 -6.48,-2 -9.84,-2.4 -9.6,-1.44 -6.24,-0.48 h -3.04 l 3.44,-2.8 6.16,-6.56 5.44,-7.44 4.56,-8.16 3.68,-8.72 2.64,-9.04 1.6,-9.04 0.56,-9.04 -0.24,-4.4 -0.24,-2.88 -0.88,-5.92 -1.44,-5.92 -2.08,-5.92 -2.64,-5.76 -3.2,-5.68 -3.84,-5.52 -4.48,-5.28 -5.04,-4.96 -5.76,-4.72 -6.4,-4.32 -7.04,-3.84 -7.76,-3.44 -8.4,-2.88 -9.2,-2.32 -9.84,-1.68 -5.28,-0.64 z"
       style="display:inline;fill:#03283a;fill-opacity:1;fill-rule:nonzero;stroke:none"
       inkscape:label="BordeNubeYPato"
       transform="matrix(1.7254042,0,0,1.7254042,-394.53784,-389.42105)" />
    <path
       id="path49"
       d="m 559.28,358.88 h -2.4 l -4.88,0.48 -4.8,0.8 -4.72,1.28 -4.56,1.76 -4.32,2.24 -3.92,2.8 -3.44,3.36 -1.52,1.92 -2.32,3.52 -3.52,7.36 -2.56,7.76 -1.84,8 -0.8,3.92 -1.12,5.52 -1.44,8.24 -1.36,5.44 -0.96,2.64 -0.56,1.36 -1.44,2.48 -1.84,2.24 -2.08,1.92 -2.4,1.68 -2.56,1.28 -2.72,0.96 -2.88,0.56 -1.44,0.08 -0.24,0.08 -0.16,0.32 0.4,0.72 2.16,1.84 0.96,1.12 4.4,4.32 9.36,8.08 4.8,3.92 0.48,0.56 0.4,1.2 -0.16,1.92 -1.52,2.16 -1.76,0.88 -1.28,0.16 -0.72,-0.08 -4.64,-0.16 -9.28,0.48 -9.28,0.56 -9.2,-0.08 -4.64,-0.56 -5.92,-1.36 -9.04,-1.6 -6,-0.08 -3.04,0.48 -3.36,0.64 -6.48,2 -6,2.88 -5.68,3.6 -5.2,4.32 -4.72,4.8 -4.16,5.36 -3.52,5.76 -1.52,2.96 -1.12,2.56 -2.08,5.12 -2.4,7.92 -1.84,10.8 -0.64,11.04 0.16,5.44 -0.08,9.76 -0.08,9.84 -10.48,-5.04 -13.44,-5.76 -5.52,-1.68 -5.68,-1.2 -5.76,-0.56 -2.96,0.08 -2.4,0.24 -4.56,1.04 -4.32,1.76 -4.08,2.32 -3.68,2.88 -3.36,3.36 -2.88,3.76 -2.48,4 -0.96,2.08 -2.16,4.56 -3.28,9.52 -1.84,9.84 -0.56,10 0.4,4.96 0.32,2.32 0.96,4.48 0.72,2.16 106.48,0.8 213.04,1.36 106.56,0.24 3.04,-0.08 h 4.72 l 3.04,-0.4 1.44,-0.48 1.04,-0.72 1.84,-1.84 2.08,-3.12 1.92,-4.8 1.2,-5.12 0.48,-2.4 0.32,-2.56 0.16,-5.12 -0.4,-5.2 -0.88,-5.04 -1.52,-4.96 -2.08,-4.64 -2.72,-4.4 -3.28,-3.92 -1.92,-1.76 -2.96,1.04 -6.16,1.44 -6.32,0.56 -6.24,-0.24 -6.24,-0.88 -6.16,-1.68 -5.92,-2.24 -5.6,-2.88 -2.64,-1.68 -3.28,-2.16 -5.92,-4.96 -8.16,-8.32 -5.2,-5.68 -0.72,-1.28 -0.56,-2.8 0.4,-4.32 -0.08,-2.88 -0.32,-1.04 -0.96,-2 -2,-2.64 -5.12,-4.08 -3.84,-2.32 -3.2,-1.84 -6.48,-3.04 -6.8,-2.48 -6.96,-1.92 -7.12,-1.44 -7.12,-1.04 -10.88,-0.72 h -7.12 -0.96 l -1.6,-0.32 -2.16,-1.28 -2.08,-2.64 -1.44,-3.2 -0.48,-1.6 -0.48,-1.6 -0.4,-3.36 0.24,-3.28 0.72,-3.28 1.2,-3.12 1.76,-2.88 2.16,-2.56 2.56,-2.16 1.44,-0.88 2.88,-2.56 5.04,-5.76 4.32,-6.32 3.44,-6.88 2.64,-7.2 1.68,-7.52 0.72,-7.6 -0.16,-7.68 -0.56,-3.84 -0.72,-3.44 -2.32,-6.72 -3.2,-6.32 -3.92,-5.84 -4.72,-5.28 -5.28,-4.8 -5.76,-4.08 -6.16,-3.44 -3.28,-1.44 -4.88,-2 -10,-3.04 -10.32,-1.92 -10.48,-0.88 z"
       style="fill:#fcfdfc;fill-opacity:1;fill-rule:nonzero;stroke:none"
       inkscape:label="NubeYPato"
       transform="matrix(1.7254042,0,0,1.7254042,-394.53784,-389.42105)" />
    <path
       id="path53"
       d="m 322.08,574 -1.2,3.6 -1.84,7.52 -0.96,7.68 -0.16,7.68 0.32,3.84 0.32,2.32 0.96,4.48 0.72,2.16 6.96,0.08 7.04,0.08 -1.44,-2 -2.64,-4.08 -2.24,-4.4 -2,-4.64 -1.52,-4.8 -1.2,-4.96 -0.8,-5.12 -0.48,-5.28 v -2.64 l 0.08,-0.8 z"
       style="fill:#a7cddd;fill-opacity:1;fill-rule:nonzero;stroke:none"
       inkscape:label="SombraInferiorIzquierda"
       transform="matrix(1.7254042,0,0,1.7254042,-394.53784,-389.42105)" />
    <path
       id="path51"
       d="m 713.28,615.6 h 16.48 l 16.56,0.08 3.04,-0.08 h 4.72 l 3.04,-0.4 1.44,-0.48 1.04,-0.72 1.84,-1.84 2.08,-3.12 1.92,-4.8 1.2,-5.12 0.48,-2.4 0.4,-3.52 -0.08,-7.12 -1.12,-7.04 -2.24,-6.8 -1.52,-3.12 0.88,2.4 1.04,4.96 0.08,2.48 v 1.76 l -0.56,3.52 -1.04,3.36 -1.52,3.28 -1.92,3.12 -2.32,3.04 -2.72,2.8 -3.12,2.72 -5.2,3.6 -8.16,4.08 -9.2,2.96 -10.16,1.92 z"
       style="fill:#a7cddd;fill-opacity:1;fill-rule:nonzero;stroke:none"
       inkscape:label="SombraInferiorDerecha"
       transform="matrix(1.7254042,0,0,1.7254042,-394.53784,-389.42105)" />
  </g>
  <g
     inkscape:groupmode="layer"
     id="layer3"
     inkscape:label="Pato">
    <path
       id="path67"
       d="m 561.28,395.6 -1.44,0.08 -2.72,0.56 -2.56,1.04 -2.24,1.52 -1.92,1.92 -1.52,2.16 -1.04,2.56 -0.56,2.72 -0.08,1.44 0.08,1.44 0.56,2.72 1.04,2.48 1.52,2.24 1.92,1.92 2.24,1.44 2.56,1.12 2.72,0.56 h 1.44 1.44 l 2.72,-0.56 2.56,-1.12 2.24,-1.44 1.92,-1.92 1.52,-2.24 1.04,-2.48 0.56,-2.72 0.08,-1.44 -0.08,-1.44 -0.56,-2.72 -1.04,-2.56 -1.52,-2.16 -1.92,-1.92 -2.24,-1.52 -2.56,-1.04 -2.72,-0.56 z m -3.84,6.32 0.56,0.08 1.04,0.4 0.8,0.8 0.48,1.04 v 0.56 0.56 l -0.48,1.04 -0.8,0.8 -1.04,0.4 h -0.56 -0.56 l -1.04,-0.48 -0.8,-0.72 -0.48,-1.04 v -0.56 -0.56 l 0.48,-1.04 0.8,-0.8 1.04,-0.4 z"
       style="fill:#03283a;fill-opacity:1;fill-rule:nonzero;stroke:none"
       inkscape:label="Ojo"
       transform="matrix(1.7254042,0,0,1.7254042,-394.53784,-389.42105)" />
    <path
       id="path55"
       d="m 482.08,416.64 -2.88,0.16 -5.36,-0.32 -7.04,-1.12 -5.44,-1.12 -2.72,-0.16 -1.84,0.64 -0.96,1.76 -0.08,1.36 0.32,2.88 1.44,5.44 2.24,5.04 2.96,4.72 3.44,4.24 3.84,3.84 4.16,3.44 4.24,2.88 2.16,1.28 3.2,1.28 4.48,1.68 3.52,0.72 3.76,0.24 h 2.56 1.68 l 3.28,-0.64 2.96,-1.28 2.64,-1.68 2.24,-2.24 1.84,-2.64 1.36,-3.04 0.88,-3.28 0.24,-1.76 0.24,-3.68 -0.4,-5.84 -0.8,-3.68 -1.44,-3.44 -2.16,-2.88 -3.04,-2.24 -4.08,-1.28 -2.48,-0.16 z"
       style="fill:#03283a;fill-opacity:1;fill-rule:nonzero;stroke:none"
       inkscape:label="PicoBorde"
       transform="matrix(1.7254042,0,0,1.7254042,-394.53784,-389.42105)" />
    <path
       id="path57"
       d="m 499.84,425.76 -7.84,0.56 -11.84,0.32 -7.84,-0.32 -3.84,-0.48 0.96,1.92 2.48,3.68 2.8,3.28 3.2,3.04 3.6,2.64 3.76,2.16 4.08,1.68 4.24,1.12 2.16,0.24 1.52,0.16 3.04,-0.72 2.64,-1.6 1.28,-1.84 0.56,-1.44 0.16,-0.8 0.24,-1.52 0.24,-3.12 -0.24,-3.12 -0.72,-3.04 -0.56,-1.44 -0.8,-0.72 -2.16,-0.64 z"
       style="fill:#f8af11;fill-opacity:1;fill-rule:nonzero;stroke:none"
       inkscape:label="PicoAmarillo"
       transform="matrix(1.7254042,0,0,1.7254042,-394.53784,-389.42105)" />
    <path
       id="path59"
       d="m 568.24,422.24 v 0.08 l -0.08,0.24 0.08,0.08 v 0.08 l 0.08,-0.4 z m -62.4,1.84 -0.08,0.08 -0.08,0.16 0.16,-0.08 h 0.24 l -0.16,-0.08 z m 81.12,28.08 0.08,0.08 h 0.08 v 0 0 z m -84.88,21.92 h -0.4 l -0.4,0.08 -1.36,0.08 -1.36,0.24 -1.84,0.32 -1.92,0.08 -0.96,0.08 -0.96,0.16 -0.8,0.08 -0.88,0.16 -0.48,0.08 -0.56,0.16 -2.48,2.4 -4.48,5.04 -3.92,5.36 -3.28,5.52 -2.64,5.68 -2.08,5.92 -1.36,6 -0.72,6.08 -0.08,3.12 0.08,3.68 0.96,7.2 1.84,6.96 2.72,6.72 3.44,6.4 4.32,6.08 4.96,5.76 5.6,5.28 6.24,4.8 6.88,4.4 7.36,3.84 7.84,3.36 8.24,2.64 8.64,2.16 9.04,1.36 9.28,0.8 h 4.8 3.52 l 6.96,-0.4 6.88,-0.8 6.72,-1.2 6.48,-1.6 6.32,-1.92 6.16,-2.32 5.84,-2.64 5.6,-2.96 5.36,-3.2 4.96,-3.6 4.72,-3.84 4.24,-4.08 3.92,-4.4 3.52,-4.64 3.04,-4.88 1.36,-2.56 -0.88,0.32 -0.88,0.16 -4.32,0.88 -4.4,0.56 -1.2,0.24 -1.12,0.32 -0.56,0.16 -0.64,0.16 -0.96,0.24 -1.04,0.16 -0.16,0.08 h -0.16 l -1.36,1.68 -1.44,1.6 -3.2,3.36 -7.12,5.92 -7.68,4.96 -8.32,4.16 -8.64,3.28 -8.88,2.4 -9.2,1.6 -9.2,0.72 h -4.56 -3.52 l -7.2,-0.56 -7.12,-0.96 -7.04,-1.52 -6.96,-2 -6.8,-2.48 -6.48,-3.04 -6.32,-3.6 -2.96,-2 -2.64,-1.84 -4.88,-4.08 -4.56,-4.56 -4,-5.04 -3.36,-5.36 -2.8,-5.76 -1.92,-6.08 -1.04,-6.32 -0.16,-3.2 v -2.32 l 0.32,-4.56 0.88,-4.4 1.36,-4.32 1.68,-4.24 2.08,-4 3.76,-5.76 2.88,-3.52 -0.72,-0.96 -0.72,-1.04 0.32,-0.48 0.48,-0.48 0.72,-0.64 0.72,-0.64 0.72,-0.64 0.64,-0.72 0.8,-1.04 0.72,-1.04 0.8,-1.04 0.72,-1.04 0.72,-1.12 0.88,-1.04 1.12,-1.2 1.36,-0.96 0.24,-0.16 0.24,-0.16 -0.96,-0.08 z m 148.8,30.16 -0.16,0.32 -0.24,0.32 0.48,0.8 0.56,0.8 -0.32,-1.12 z"
       style="fill:#a7cddd;fill-opacity:1;fill-rule:nonzero;stroke:none"
       inkscape:label="AlaInferiorSombra"
       transform="matrix(1.7254042,0,0,1.7254042,-394.53784,-389.42105)" />
    <path
       id="path61"
       d="m 573.6,415.44 v 0.08 l -0.08,0.32 0.08,0.08 v 0.08 -0.4 z m -62.4,1.84 -0.08,0.16 -0.08,0.08 h 0.16 l 0.24,-0.08 -0.16,-0.08 z m 2.56,26 -0.4,0.48 -0.32,0.56 -1.84,2.32 -2.16,2.16 -2.72,2.08 -2.88,1.76 v 0 h -0.08 l 0.64,1.92 1.52,3.68 0.96,1.76 -3.76,2.56 -6.8,5.6 -5.84,6.16 -5.04,6.48 -4.08,6.96 -3.12,7.2 -2.16,7.44 -1.12,7.6 -0.08,3.92 0.08,3.68 0.96,7.2 1.84,6.96 2.72,6.72 3.44,6.48 4.32,6.08 4.96,5.68 5.6,5.28 6.24,4.88 6.88,4.32 7.36,3.92 7.84,3.28 8.24,2.72 8.64,2.08 9.04,1.44 9.28,0.72 4.8,0.08 3.52,-0.08 6.96,-0.4 6.88,-0.8 6.64,-1.2 6.56,-1.6 6.32,-1.92 6.16,-2.32 5.84,-2.56 5.6,-2.96 5.36,-3.28 4.96,-3.6 4.64,-3.84 4.32,-4.08 3.92,-4.4 3.52,-4.64 3.04,-4.88 1.36,-2.56 -0.88,0.32 -0.88,0.24 -4.4,0.8 -4.32,0.56 -1.2,0.32 -1.12,0.24 -0.56,0.16 -0.64,0.16 -0.96,0.24 -1.04,0.24 h -0.16 l -0.24,0.08 -1.28,1.68 -1.44,1.52 -3.2,3.36 -7.12,5.92 -7.76,5.04 -8.24,4.08 -8.64,3.28 -8.88,2.4 -9.2,1.6 -9.2,0.72 -4.56,0.08 -3.6,-0.08 -7.12,-0.48 -7.12,-1.04 -7.04,-1.44 -6.96,-2 -6.8,-2.56 -6.56,-3.04 -6.24,-3.6 -2.96,-2 -2.64,-1.84 -4.88,-4.08 -4.56,-4.56 -4,-4.96 -3.44,-5.44 -2.72,-5.76 -1.92,-6.08 -1.04,-6.24 -0.16,-3.28 v -3.2 l 0.8,-6.16 1.6,-6.08 2.48,-5.76 3.12,-5.44 3.76,-5.04 4.24,-4.72 4.64,-4.16 2.48,-1.92 2.08,-1.2 3.6,-3.2 2,-2.96 0.88,-2.16 0.48,-2.32 -0.08,-2.32 -0.32,-1.2 -1.76,-3.28 -1.92,-5.12 -0.8,-3.52 z m 78.56,2.16 v 0 h 0.08 0.08 v 0 0 z m 63.92,52 -0.16,0.32 -0.24,0.32 0.48,0.8 0.56,0.88 -0.32,-1.2 z"
       style="fill:#03283a;fill-opacity:1;fill-rule:nonzero;stroke:none"
       inkscape:label="AlaInferior"
       transform="matrix(1.7254042,0,0,1.7254042,-394.53784,-389.42105)" />
    <path
       id="path63"
       d="m 544.72,481.44 h -1.52 l -1.68,0.56 -0.72,0.32 -1.68,1.36 -1.76,2 -1.6,2.56 -0.64,1.44 -0.8,2.16 -1.2,4.4 -0.88,5.28 -0.08,0.88 v 2.48 l 0.56,4.72 1.04,4.56 1.6,4.48 2.08,4.24 2.48,4 2.88,3.76 3.28,3.44 3.68,3.2 4,2.88 4.24,2.56 4.64,2.16 4.8,1.76 5.04,1.44 5.28,0.88 5.44,0.48 2.8,0.08 3.52,-0.08 3.52,-0.4 1.92,2.08 4.56,3.52 5.2,2.8 5.76,1.92 3.04,0.56 h 0.96 l 1.52,-0.32 0.56,-0.24 0.72,-0.32 0.64,-0.32 0.88,-0.32 0.96,-0.4 0.4,-0.16 0.4,-0.24 0.88,-0.48 0.56,-0.32 0.72,-0.16 0.64,-0.16 v -0.24 l -0.08,-0.24 -0.48,-0.24 -0.32,-1.04 0.16,-0.8 0.08,-0.32 0.16,-0.32 0.08,-0.08 v -0.08 l 0.08,-0.16 v -0.16 l 0.32,-1.84 0.16,-1.84 0.08,-0.32 0.08,-0.64 -1.92,0.24 -3.92,-0.08 -3.84,-0.56 -3.68,-1.2 -1.76,-0.8 -1.04,-0.32 -1.76,-1.12 -2.48,-2 -3.12,-2.96 -2.56,-1.6 -2,-0.64 -1.12,-0.08 -2.4,0.24 -4.8,0.24 -4.8,-0.24 -4.8,-0.56 -4.72,-1.04 -4.56,-1.52 -4.32,-2 -4.16,-2.4 -1.92,-1.44 -2.08,-1.52 -3.68,-3.6 -3.04,-4.08 -2.32,-4.56 -1.68,-4.8 -0.88,-5.04 v -5.04 l 0.88,-5.04 0.8,-2.48 0.96,-2.32 1.2,-2.16 0.32,-1.44 -0.24,-2.32 -0.88,-1.52 -1.68,-0.88 z m 102.08,66.32 v 0 0 l -0.08,0.08 v 0.08 l 0.08,0.08 z m -23.68,6.88 -0.08,0.16 0.08,0.16 v 0 0 -0.16 -0.08 z"
       style="fill:#a7cddd;fill-opacity:1;fill-rule:nonzero;stroke:none"
       inkscape:label="SombraAlaSuperior"
       transform="matrix(1.7254042,0,0,1.7254042,-394.53784,-389.42105)" />
    <path
       id="path65"
       d="m 533.6,499.52 v 2.4 l 0.56,4.72 1.12,4.64 1.52,4.4 2.08,4.24 2.48,4 2.88,3.76 3.28,3.52 3.68,3.2 4,2.88 4.32,2.48 4.56,2.24 4.8,1.76 5.04,1.36 5.28,0.96 5.44,0.48 h 2.8 l 3.52,-0.08 3.52,-0.32 1.2,1.28 2.64,2.4 2.96,2.08 3.28,1.84 3.52,1.44 3.6,1.12 3.84,0.8 4,0.4 h 2 l 2.88,-0.08 5.52,-0.72 5.12,-1.44 4.72,-2.08 4.24,-2.72 3.6,-3.12 2.96,-3.6 2.24,-4 0.72,-2.16 -0.08,-1.04 -0.56,-1.68 -0.96,-0.8 -0.72,-0.24 -0.48,-0.08 -0.88,0.32 -1.28,1.2 -0.8,0.96 -0.88,0.88 -1.6,1.2 -1.44,1.04 -3.28,1.2 -1.76,0.4 -1.44,0.16 -1.36,0.08 -1.44,0.96 -2.96,1.44 -3.28,1.12 -3.36,0.56 -3.44,0.24 -3.44,-0.24 -3.28,-0.64 -3.28,-1.04 -1.52,-0.72 -0.96,-0.4 -1.84,-1.04 -2.4,-2.08 -3.12,-2.88 -2.64,-1.68 -2,-0.64 -1.12,-0.08 -2.4,0.32 -4.8,0.16 -4.8,-0.16 -4.8,-0.64 -4.64,-1.04 -4.56,-1.52 -4.4,-1.92 -4.16,-2.48 -1.92,-1.44 -2.08,-1.52 -3.6,-3.52 -3.04,-4.08 -2.4,-4.56 -1.68,-4.8 -0.8,-5.04 -0.08,-5.12 0.88,-4.96 0.8,-2.48 0.96,-2.32 1.2,-2.24 0.24,-0.96 0.08,-1.68 -0.32,-1.36 -0.64,-1.04 -0.96,-0.72 -1.12,-0.4 h -2.24 l -1.68,0.48 -0.72,0.4 -1.68,1.28 -1.76,2 -1.6,2.64 -0.64,1.44 -0.8,2.16 -1.12,4.4 -0.96,5.28 z"
       style="fill:#03283a;fill-opacity:1;fill-rule:nonzero;stroke:none"
       inkscape:label="AlaSuperior"
       transform="matrix(1.7254042,0,0,1.7254042,-394.53784,-389.42105)" />
  </g>
  <g
     inkscape:groupmode="layer"
     id="layer2"
     inkscape:label="Decoraciones">
    <g
       id="g2">
      <path
         id="path81"
         d="m 682.24,430.8 h 46.64 v 0 h 0.08 v 0 l 0.96,0.08 1.68,0.8 1.2,1.44 0.72,2 0.08,1.04 -0.08,1.12 -0.72,1.92 -1.2,1.44 -1.68,0.8 -0.96,0.08 v 0 h -0.08 v 0 0 h -46.64 z"
         style="fill:#fcfdfc;fill-opacity:1;fill-rule:nonzero;stroke:none"
         transform="matrix(1.7254042,0,0,1.7254042,-394.53784,-389.42105)" />
      <path
         id="path77"
         d="m 675.92,436.16 v 1.2 l 0.48,2.4 0.96,2.16 1.28,1.92 1.6,1.6 1.92,1.28 2.16,0.88 2.32,0.48 1.28,0.08 1.2,-0.08 2.32,-0.48 2.16,-0.88 1.92,-1.28 1.68,-1.6 1.28,-1.92 0.88,-2.16 0.48,-2.4 0.08,-1.2 -0.08,-1.2 -0.48,-2.4 -0.88,-2.16 -1.28,-1.92 -1.68,-1.6 -1.92,-1.28 -2.16,-0.88 -2.32,-0.48 -1.2,-0.08 -1.28,0.08 -2.32,0.48 -2.16,0.88 -1.92,1.28 -1.6,1.6 -1.28,1.92 -0.96,2.16 -0.48,2.4 z"
         style="fill:#fcfdfc;fill-opacity:1;fill-rule:nonzero;stroke:none"
         transform="matrix(1.7254042,0,0,1.7254042,-394.53784,-389.42105)" />
    </g>
    <g
       id="g1"
       inkscape:label="g1">
      <path
         id="path79"
         d="m 771.76,493.36 v 1.2 l 0.48,2.32 0.96,2.16 1.28,1.92 1.6,1.68 1.92,1.28 2.16,0.88 2.32,0.48 1.28,0.08 1.2,-0.08 2.4,-0.48 2.16,-0.88 1.84,-1.28 1.68,-1.68 1.28,-1.92 0.88,-2.16 0.48,-2.32 0.08,-1.2 -0.08,-1.28 -0.48,-2.32 -0.88,-2.16 -1.28,-1.92 -1.68,-1.6 -1.84,-1.28 -2.16,-0.96 -2.4,-0.48 h -1.2 -1.28 l -2.32,0.48 -2.16,0.96 -1.92,1.28 -1.6,1.6 -1.28,1.92 -0.96,2.16 -0.48,2.32 z"
         style="fill:#fcfdfc;fill-opacity:1;fill-rule:nonzero;stroke:none"
         transform="matrix(1.7254042,0,0,1.7254042,-394.53784,-389.42105)" />
      <path
         id="path83"
         d="m 786.96,487.52 h -46.64 v 0 0 h -0.08 l -0.96,0.08 -1.6,0.8 -1.28,1.44 -0.72,1.92 -0.08,1.12 0.08,1.12 0.72,1.92 1.28,1.44 1.6,0.8 0.96,0.08 h 0.08 v 0 0 0 h 46.64 z"
         style="fill:#fcfdfc;fill-opacity:1;fill-rule:nonzero;stroke:none"
         transform="matrix(1.7254042,0,0,1.7254042,-394.53784,-389.42105)" />
    </g>
    <g
       id="g3">
      <path
         id="path69"
         d="m 461.76,358.24 -0.08,1.2 -0.48,2.32 -0.88,2.16 -1.28,1.92 -1.68,1.6 -1.92,1.36 -2.16,0.88 -2.32,0.48 -1.2,0.08 -1.28,-0.08 -2.32,-0.48 -2.16,-0.88 -1.92,-1.36 -1.6,-1.6 -1.28,-1.92 -0.96,-2.16 -0.48,-2.32 v -1.2 -1.28 l 0.48,-2.32 0.96,-2.16 1.28,-1.92 1.6,-1.6 1.92,-1.36 2.16,-0.88 2.32,-0.48 h 1.28 1.2 l 2.32,0.48 2.16,0.88 1.92,1.36 1.68,1.6 1.28,1.92 0.88,2.16 0.48,2.32 z"
         style="fill:#fcfdfc;fill-opacity:1;fill-rule:nonzero;stroke:none"
         transform="matrix(1.7254042,0,0,1.7254042,-394.53784,-389.42105)" />
      <path
         id="path73"
         d="m 449.76,353.2 h -46.72 v 0 0 h -0.08 l -0.96,0.08 -1.6,0.8 -1.28,1.44 -0.72,2 v 1.04 1.12 l 0.72,1.92 1.28,1.44 1.6,0.88 0.96,0.08 0.08,-0.08 v 0 0 h 0.08 46.64 z"
         style="fill:#fcfdfc;fill-opacity:1;fill-rule:nonzero;stroke:none"
         transform="matrix(1.7254042,0,0,1.7254042,-394.53784,-389.42105)" />
    </g>
    <g
       id="g4">
      <path
         id="path71"
         d="m 343.44,432.8 v 1.2 l -0.48,2.4 -0.96,2.16 -1.28,1.92 -1.6,1.6 -1.92,1.28 -2.16,0.96 -2.32,0.48 h -1.28 -1.2 l -2.32,-0.48 -2.16,-0.96 -1.92,-1.28 -1.68,-1.6 -1.28,-1.92 -0.88,-2.16 -0.48,-2.4 -0.08,-1.2 0.08,-1.2 0.48,-2.4 0.88,-2.16 1.28,-1.92 1.68,-1.6 1.92,-1.28 2.16,-0.88 2.32,-0.48 1.2,-0.08 1.28,0.08 2.32,0.48 2.16,0.88 1.92,1.28 1.6,1.6 1.28,1.92 0.96,2.16 0.48,2.4 z"
         style="fill:#fcfdfc;fill-opacity:1;fill-rule:nonzero;stroke:none"
         transform="matrix(1.7254042,0,0,1.7254042,-394.53784,-389.42105)" />
      <path
         id="path75"
         d="m 334.88,427.6 h 46.64 v 0 0 h 0.08 l 0.96,0.08 1.6,0.8 1.28,1.44 0.72,1.92 0.08,1.12 -0.08,1.12 -0.72,1.92 -1.28,1.44 -1.6,0.8 -0.96,0.08 h -0.08 v 0 0 h -0.08 -46.56 z"
         style="fill:#fcfdfc;fill-opacity:1;fill-rule:nonzero;stroke:none"
         transform="matrix(1.7254042,0,0,1.7254042,-394.53784,-389.42105)" />
    </g>
  </g>
  <g
     inkscape:groupmode="layer"
     id="layer5"
     inkscape:label="DecoracionesInferiores">
    <path
       id="path47"
       d="m 610.08,633.28 v 68.72 0 0.08 0.08 l 0.08,1.36 1.12,2.48 2.08,1.84 2.72,1.04 1.52,0.08 1.6,-0.08 2.72,-1.04 2,-1.84 1.2,-2.48 0.08,-1.36 v -0.08 -0.08 0 0 -68.72 z"
       style="fill:#fcfdfc;fill-opacity:1;fill-rule:nonzero;stroke:none"
       transform="matrix(1.7254042,0,0,1.7254042,-394.53784,-389.42105)" />
    <g
       id="g5"
       transform="matrix(1.7254042,0,0,1.7254042,-394.53784,-389.42105)">
      <path
         id="path35"
         d="M 554.24,632.96 H 539.12 V 764 h 15.12 z"
         style="fill:#fcfdfc;fill-opacity:1;fill-rule:nonzero;stroke:none" />
      <path
         id="path37"
         d="m 522,705.2 0.08,2.56 1.04,4.88 1.84,4.48 2.72,4 3.36,3.36 4,2.72 4.48,1.92 4.88,0.96 2.64,0.08 2.56,-0.08 4.88,-0.96 4.48,-1.92 4,-2.72 3.36,-3.36 2.72,-4 1.84,-4.48 1.04,-4.88 0.08,-2.56 -0.08,-2.56 -1.04,-4.88 -1.84,-4.48 -2.72,-4 -3.36,-3.44 -4,-2.64 -4.48,-1.92 -4.88,-0.96 -2.56,-0.16 -2.64,0.16 -4.88,0.96 -4.48,1.92 -4,2.64 -3.36,3.44 -2.72,4 -1.84,4.48 -1.04,4.88 z"
         style="fill:#fcfdfc;fill-opacity:1;fill-rule:nonzero;stroke:none" />
      <path
         id="path39"
         d="m 532,705.2 0.08,1.52 0.56,2.96 1.12,2.72 1.68,2.32 2,2.08 2.4,1.6 2.72,1.12 2.88,0.64 h 1.6 1.52 l 2.88,-0.64 2.72,-1.12 2.4,-1.6 2,-2.08 1.68,-2.32 1.12,-2.72 0.56,-2.96 0.08,-1.52 -0.08,-1.52 -0.56,-2.96 -1.12,-2.72 -1.68,-2.32 -2,-2.08 -2.4,-1.6 -2.72,-1.12 -2.88,-0.64 -1.52,-0.08 -1.6,0.08 -2.88,0.64 -2.72,1.12 -2.4,1.6 -2,2.08 -1.68,2.32 -1.12,2.72 -0.56,2.96 z"
         style="fill:#022a3b;fill-opacity:1;fill-rule:nonzero;stroke:none" />
      <path
         id="path41"
         d="m 521.28,769.04 0.08,2.64 0.96,4.88 1.92,4.48 2.72,4 3.36,3.36 4,2.72 4.48,1.84 4.88,1.04 2.56,0.08 2.56,-0.08 4.88,-1.04 4.56,-1.84 3.92,-2.72 3.44,-3.36 2.64,-4 1.92,-4.48 1.04,-4.88 0.08,-2.64 -0.08,-2.56 -1.04,-4.88 -1.92,-4.48 -2.64,-4 -3.44,-3.36 -3.92,-2.72 -4.56,-1.84 -4.88,-1.04 -2.56,-0.08 -2.56,0.08 -4.88,1.04 -4.48,1.84 -4,2.72 -3.36,3.36 -2.72,4 -1.92,4.48 -0.96,4.88 z"
         style="fill:#fcfdfc;fill-opacity:1;fill-rule:nonzero;stroke:none" />
      <path
         id="path43"
         d="m 531.28,769.04 v 1.6 l 0.64,2.88 1.12,2.72 1.6,2.4 2.08,2 2.4,1.68 2.64,1.12 2.96,0.56 1.52,0.08 1.6,-0.08 2.88,-0.56 2.72,-1.12 2.4,-1.68 2,-2 1.6,-2.4 1.2,-2.72 0.56,-2.88 0.08,-1.6 -0.08,-1.52 -0.56,-2.88 -1.2,-2.72 -1.6,-2.4 -2,-2 -2.4,-1.68 -2.72,-1.12 -2.88,-0.56 -1.6,-0.08 -1.52,0.08 -2.96,0.56 -2.64,1.12 -2.4,1.68 -2.08,2 -1.6,2.4 -1.12,2.72 -0.64,2.88 z"
         style="fill:#022a3b;fill-opacity:1;fill-rule:nonzero;stroke:none" />
    </g>
    <g
       id="g6"
       transform="matrix(1.7254042,0,0,1.7254042,-394.53784,-389.42105)">
      <path
         id="path25"
         d="m 681.44,633.68 h -15.12 v 75.6 h 15.12 z"
         style="fill:#fcfdfc;fill-opacity:1;fill-rule:nonzero;stroke:none" />
      <path
         id="path27"
         d="m 681.44,708.88 -8.72,-12.32 -33.52,23.76 8.8,12.32 z"
         style="fill:#fcfdfc;fill-opacity:1;fill-rule:nonzero;stroke:none" />
      <path
         id="path29"
         d="M 654.32,720.32 H 639.2 v 18.72 h 15.12 z"
         style="fill:#fcfdfc;fill-opacity:1;fill-rule:nonzero;stroke:none" />
      <path
         id="path31"
         d="m 621.92,757.12 0.16,2.56 0.96,4.88 1.92,4.48 2.64,4 3.44,3.36 4,2.72 4.48,1.84 4.88,1.04 2.56,0.08 2.56,-0.08 4.88,-1.04 4.48,-1.84 4,-2.72 3.36,-3.36 2.72,-4 1.92,-4.48 0.96,-4.88 0.08,-2.56 -0.08,-2.64 -0.96,-4.88 -1.92,-4.48 -2.72,-4 -3.36,-3.36 -4,-2.72 -4.48,-1.84 -4.88,-1.04 -2.56,-0.08 -2.56,0.08 -4.88,1.04 -4.48,1.84 -4,2.72 -3.44,3.36 -2.64,4 -1.92,4.48 -0.96,4.88 z"
         style="fill:#fcfdfc;fill-opacity:1;fill-rule:nonzero;stroke:none" />
      <path
         id="path33"
         d="m 631.92,757.12 0.08,1.52 0.64,2.88 1.12,2.72 1.6,2.4 2.08,2 2.32,1.68 2.72,1.12 2.96,0.56 1.52,0.08 1.52,-0.08 2.96,-0.56 2.72,-1.12 2.32,-1.68 2.08,-2 1.6,-2.4 1.12,-2.72 0.64,-2.88 v -1.52 -1.6 l -0.64,-2.88 -1.12,-2.72 -1.6,-2.4 -2.08,-2 -2.32,-1.68 -2.72,-1.12 -2.96,-0.56 -1.52,-0.08 -1.52,0.08 -2.96,0.56 -2.72,1.12 -2.32,1.68 -2.08,2 -1.6,2.4 -1.12,2.72 -0.64,2.88 z"
         style="fill:#022a3b;fill-opacity:1;fill-rule:nonzero;stroke:none" />
    </g>
    <g
       id="g7"
       transform="matrix(1.7254042,0,0,1.7254042,-394.53784,-389.42105)">
      <path
         id="path15"
         d="m 411.12,632.16 h 15.12 v 75.52 h -15.12 z"
         style="fill:#fcfdfc;fill-opacity:1;fill-rule:nonzero;stroke:none" />
      <path
         id="path17"
         d="m 411.12,707.76 8.8,-12.4 33.44,23.76 -8.72,12.32 z"
         style="fill:#fcfdfc;fill-opacity:1;fill-rule:nonzero;stroke:none" />
      <path
         id="path19"
         d="m 438.24,719.12 h 15.12 v 18.8 h -15.12 z"
         style="fill:#fcfdfc;fill-opacity:1;fill-rule:nonzero;stroke:none" />
      <path
         id="path21"
         d="m 470.64,755.92 -0.08,2.56 -0.96,4.88 -1.92,4.48 -2.72,4 -3.36,3.44 -4,2.64 -4.48,1.92 -4.88,0.96 -2.56,0.16 -2.56,-0.16 -4.88,-0.96 -4.48,-1.92 -4,-2.64 -3.44,-3.44 -2.64,-4 -1.92,-4.48 -1.04,-4.88 -0.08,-2.56 0.08,-2.56 1.04,-4.88 1.92,-4.48 2.64,-4 3.44,-3.36 4,-2.72 4.48,-1.92 4.88,-0.96 2.56,-0.08 2.56,0.08 4.88,0.96 4.48,1.92 4,2.72 3.36,3.36 2.72,4 1.92,4.48 0.96,4.88 z"
         style="fill:#fcfdfc;fill-opacity:1;fill-rule:nonzero;stroke:none" />
      <path
         id="path23"
         d="m 460.64,755.92 v 1.52 l -0.64,2.96 -1.12,2.72 -1.6,2.4 -2.08,2 -2.4,1.6 -2.64,1.12 -2.96,0.64 -1.52,0.08 -1.52,-0.08 -2.96,-0.64 -2.72,-1.12 -2.4,-1.6 -2,-2 -1.6,-2.4 -1.2,-2.72 -0.56,-2.96 -0.08,-1.52 0.08,-1.52 0.56,-2.96 1.2,-2.64 1.6,-2.4 2,-2.08 2.4,-1.6 2.72,-1.12 2.96,-0.64 h 1.52 1.52 l 2.96,0.64 2.64,1.12 2.4,1.6 2.08,2.08 1.6,2.4 1.12,2.64 0.64,2.96 z"
         style="fill:#022a3b;fill-opacity:1;fill-rule:nonzero;stroke:none" />
    </g>
    <path
       id="path45"
       d="m 470.48,632.4 v 68.72 0 0.08 0.08 l 0.08,1.36 1.2,2.48 2,1.84 2.72,0.96 1.6,0.16 1.52,-0.16 2.72,-0.96 2.08,-1.84 1.12,-2.48 0.08,-1.36 v -0.08 -0.08 0 0 -68.72 z"
       style="fill:#fcfdfc;fill-opacity:1;fill-rule:nonzero;stroke:none"
       transform="matrix(1.7254042,0,0,1.7254042,-394.53784,-389.42105)" />
  </g>
</svg>
